<svg width="39" height="36" viewBox="0 0 39 36" fill="none" xmlns="http://www.w3.org/2000/svg">
<path d="M15.5625 7.5625C15.7448 7.5625 15.9197 7.63493 16.0486 7.76386C16.1776 7.8928 16.25 8.06766 16.25 8.25V16.5C16.25 16.6823 16.1776 16.8572 16.0486 16.9861C15.9197 17.1151 15.7448 17.1875 15.5625 17.1875C15.3802 17.1875 15.2053 17.1151 15.0764 16.9861C14.9474 16.8572 14.875 16.6823 14.875 16.5V8.25C14.875 8.06766 14.9474 7.8928 15.0764 7.76386C15.2053 7.63493 15.3802 7.5625 15.5625 7.5625ZM19 7.5625C19.1823 7.5625 19.3572 7.63493 19.4861 7.76386C19.6151 7.8928 19.6875 8.06766 19.6875 8.25V16.5C19.6875 16.6823 19.6151 16.8572 19.4861 16.9861C19.3572 17.1151 19.1823 17.1875 19 17.1875C18.8177 17.1875 18.6428 17.1151 18.5139 16.9861C18.3849 16.8572 18.3125 16.6823 18.3125 16.5V8.25C18.3125 8.06766 18.3849 7.8928 18.5139 7.76386C18.6428 7.63493 18.8177 7.5625 19 7.5625ZM23.125 8.25C23.125 8.06766 23.0526 7.8928 22.9236 7.76386C22.7947 7.63493 22.6198 7.5625 22.4375 7.5625C22.2552 7.5625 22.0803 7.63493 21.9513 7.76386C21.8224 7.8928 21.75 8.06766 21.75 8.25V16.5C21.75 16.6823 21.8224 16.8572 21.9513 16.9861C22.0803 17.1151 22.2552 17.1875 22.4375 17.1875C22.6198 17.1875 22.7947 17.1151 22.9236 16.9861C23.0526 16.8572 23.125 16.6823 23.125 16.5V8.25Z" fill="#555555"/>
<path d="M27.9375 4.125C27.9375 4.48967 27.7926 4.83941 27.5348 5.09727C27.2769 5.35513 26.9272 5.5 26.5625 5.5H25.875V17.875C25.875 18.6043 25.5853 19.3038 25.0695 19.8195C24.5538 20.3353 23.8543 20.625 23.125 20.625H14.875C14.1456 20.625 13.4462 20.3353 12.9304 19.8195C12.4147 19.3038 12.125 18.6043 12.125 17.875V5.5H11.4375C11.0728 5.5 10.7231 5.35513 10.4652 5.09727C10.2074 4.83941 10.0625 4.48967 10.0625 4.125V2.75C10.0625 2.38533 10.2074 2.03559 10.4652 1.77773C10.7231 1.51987 11.0728 1.375 11.4375 1.375H16.25C16.25 1.01033 16.3949 0.660591 16.6527 0.402728C16.9106 0.144866 17.2603 0 17.625 0H20.375C20.7397 0 21.0894 0.144866 21.3473 0.402728C21.6051 0.660591 21.75 1.01033 21.75 1.375H26.5625C26.9272 1.375 27.2769 1.51987 27.5348 1.77773C27.7926 2.03559 27.9375 2.38533 27.9375 2.75V4.125ZM13.6622 5.5L13.5 5.58113V17.875C13.5 18.2397 13.6449 18.5894 13.9027 18.8473C14.1606 19.1051 14.5103 19.25 14.875 19.25H23.125C23.4897 19.25 23.8394 19.1051 24.0973 18.8473C24.3551 18.5894 24.5 18.2397 24.5 17.875V5.58113L24.3377 5.5H13.6622ZM11.4375 4.125H26.5625V2.75H11.4375V4.125Z" fill="#555555"/>
<path d="M8.69206 30.1506C8.69206 30.8616 8.57356 31.5144 8.33657 32.1091C8.09958 32.7039 7.76645 33.2159 7.33718 33.6451C6.90791 34.0744 6.39145 34.4075 5.78779 34.6445C5.18413 34.8815 4.5134 35 3.7756 35H0.0798645V25.3012H3.7756C4.5134 25.3012 5.18413 25.422 5.78779 25.6634C6.39145 25.9004 6.90791 26.2335 7.33718 26.6628C7.76645 27.0876 8.09958 27.5974 8.33657 28.1921C8.57356 28.7868 8.69206 29.4396 8.69206 30.1506ZM6.84084 30.1506C6.84084 29.6185 6.7693 29.1423 6.62621 28.722C6.48759 28.2972 6.28413 27.9394 6.01584 27.6488C5.75202 27.3537 5.43007 27.1278 5.04999 26.9713C4.67438 26.8148 4.24958 26.7366 3.7756 26.7366H1.89084V33.5646H3.7756C4.24958 33.5646 4.67438 33.4864 5.04999 33.3299C5.43007 33.1734 5.75202 32.9498 6.01584 32.6591C6.28413 32.364 6.48759 32.0063 6.62621 31.586C6.7693 31.1612 6.84084 30.6827 6.84084 30.1506Z" fill="#555555"/>
<path d="M14.3652 30.7677C14.3652 30.553 14.3339 30.3518 14.2713 30.164C14.2132 29.9717 14.1237 29.8041 14.003 29.661C13.8823 29.5179 13.728 29.4061 13.5402 29.3256C13.3569 29.2406 13.1422 29.1982 12.8963 29.1982C12.4178 29.1982 12.04 29.3346 11.7628 29.6073C11.49 29.8801 11.3156 30.2669 11.2396 30.7677H14.3652ZM11.206 31.7671C11.2329 32.1203 11.2955 32.4266 11.3939 32.686C11.4922 32.9409 11.6219 33.1533 11.7829 33.3232C11.9439 33.4886 12.1339 33.6138 12.353 33.6988C12.5766 33.7793 12.8225 33.8195 13.0908 33.8195C13.3591 33.8195 13.5894 33.7882 13.7817 33.7256C13.9784 33.663 14.1483 33.5937 14.2914 33.5177C14.439 33.4417 14.5664 33.3724 14.6737 33.3098C14.7855 33.2472 14.8928 33.2159 14.9957 33.2159C15.1343 33.2159 15.2371 33.2673 15.3042 33.3701L15.7804 33.9738C15.5971 34.1884 15.3914 34.3695 15.1634 34.5171C14.9353 34.6602 14.6961 34.7764 14.4457 34.8659C14.1997 34.9508 13.9471 35.0112 13.6878 35.047C13.4329 35.0827 13.1847 35.1006 12.9432 35.1006C12.4648 35.1006 12.0199 35.0224 11.6085 34.8659C11.1971 34.7049 10.8394 34.4701 10.5353 34.1616C10.2312 33.8486 9.99202 33.464 9.81763 33.0079C9.64324 32.5474 9.55605 32.0152 9.55605 31.4116C9.55605 30.9421 9.63206 30.5016 9.78409 30.0902C9.93613 29.6744 10.153 29.3144 10.4347 29.0104C10.7209 28.7018 11.0674 28.4581 11.4743 28.2793C11.8857 28.1004 12.3485 28.011 12.8628 28.011C13.2965 28.011 13.6967 28.0803 14.0634 28.2189C14.43 28.3575 14.7453 28.561 15.0091 28.8293C15.2729 29.0931 15.4786 29.4195 15.6262 29.8085C15.7782 30.1931 15.8542 30.6335 15.8542 31.1299C15.8542 31.3803 15.8274 31.5502 15.7737 31.6396C15.7201 31.7246 15.6172 31.7671 15.4652 31.7671H11.206Z" fill="#555555"/>
<path d="M18.7743 25.0329V35H17.1176V25.0329H18.7743Z" fill="#555555"/>
<path d="M24.8585 30.7677C24.8585 30.553 24.8272 30.3518 24.7646 30.164C24.7064 29.9717 24.617 29.8041 24.4963 29.661C24.3755 29.5179 24.2213 29.4061 24.0335 29.3256C23.8501 29.2406 23.6355 29.1982 23.3896 29.1982C22.9111 29.1982 22.5333 29.3346 22.256 29.6073C21.9833 29.8801 21.8089 30.2669 21.7329 30.7677H24.8585ZM21.6993 31.7671C21.7262 32.1203 21.7888 32.4266 21.8871 32.686C21.9855 32.9409 22.1152 33.1533 22.2762 33.3232C22.4371 33.4886 22.6272 33.6138 22.8463 33.6988C23.0699 33.7793 23.3158 33.8195 23.5841 33.8195C23.8524 33.8195 24.0827 33.7882 24.2749 33.7256C24.4717 33.663 24.6416 33.5937 24.7847 33.5177C24.9323 33.4417 25.0597 33.3724 25.167 33.3098C25.2788 33.2472 25.3861 33.2159 25.489 33.2159C25.6276 33.2159 25.7304 33.2673 25.7975 33.3701L26.2737 33.9738C26.0904 34.1884 25.8847 34.3695 25.6566 34.5171C25.4286 34.6602 25.1894 34.7764 24.939 34.8659C24.693 34.9508 24.4404 35.0112 24.181 35.047C23.9262 35.0827 23.678 35.1006 23.4365 35.1006C22.9581 35.1006 22.5131 35.0224 22.1018 34.8659C21.6904 34.7049 21.3327 34.4701 21.0286 34.1616C20.7245 33.8486 20.4853 33.464 20.3109 33.0079C20.1365 32.5474 20.0493 32.0152 20.0493 31.4116C20.0493 30.9421 20.1253 30.5016 20.2774 30.0902C20.4294 29.6744 20.6463 29.3144 20.928 29.0104C21.2142 28.7018 21.5607 28.4581 21.9676 28.2793C22.379 28.1004 22.8418 28.011 23.356 28.011C23.7898 28.011 24.19 28.0803 24.5566 28.2189C24.9233 28.3575 25.2386 28.561 25.5024 28.8293C25.7662 29.0931 25.9719 29.4195 26.1194 29.8085C26.2715 30.1931 26.3475 30.6335 26.3475 31.1299C26.3475 31.3803 26.3207 31.5502 26.267 31.6396C26.2134 31.7246 26.1105 31.7671 25.9585 31.7671H21.6993Z" fill="#555555"/>
<path d="M29.8192 35.1073C29.22 35.1073 28.7594 34.9396 28.4375 34.6043C28.12 34.2644 27.9612 33.7972 27.9612 33.2024V29.3591H27.257C27.1675 29.3591 27.0915 29.3301 27.0289 29.272C26.9663 29.2138 26.935 29.1266 26.935 29.0104V28.353L28.0417 28.172L28.3905 26.2939C28.4129 26.2045 28.4553 26.1352 28.5179 26.086C28.5805 26.0368 28.661 26.0122 28.7594 26.0122H29.6179V28.1787H31.4557V29.3591H29.6179V33.0884C29.6179 33.303 29.6694 33.4707 29.7722 33.5915C29.8795 33.7122 30.0249 33.7726 30.2082 33.7726C30.311 33.7726 30.396 33.7614 30.4631 33.739C30.5346 33.7122 30.595 33.6854 30.6442 33.6585C30.6978 33.6317 30.7448 33.6071 30.785 33.5848C30.8253 33.5579 30.8655 33.5445 30.9058 33.5445C30.9549 33.5445 30.9952 33.5579 31.0265 33.5848C31.0578 33.6071 31.0913 33.6429 31.1271 33.6921L31.6234 34.497C31.382 34.6982 31.1047 34.8502 30.7917 34.953C30.4787 35.0559 30.1545 35.1073 29.8192 35.1073Z" fill="#555555"/>
<path d="M36.8976 30.7677C36.8976 30.553 36.8663 30.3518 36.8037 30.164C36.7456 29.9717 36.6561 29.8041 36.5354 29.661C36.4147 29.5179 36.2604 29.4061 36.0726 29.3256C35.8892 29.2406 35.6746 29.1982 35.4287 29.1982C34.9502 29.1982 34.5724 29.3346 34.2951 29.6073C34.0224 29.8801 33.848 30.2669 33.772 30.7677H36.8976ZM33.7384 31.7671C33.7653 32.1203 33.8279 32.4266 33.9262 32.686C34.0246 32.9409 34.1543 33.1533 34.3153 33.3232C34.4762 33.4886 34.6663 33.6138 34.8854 33.6988C35.109 33.7793 35.3549 33.8195 35.6232 33.8195C35.8915 33.8195 36.1218 33.7882 36.314 33.7256C36.5108 33.663 36.6807 33.5937 36.8238 33.5177C36.9714 33.4417 37.0988 33.3724 37.2061 33.3098C37.3179 33.2472 37.4252 33.2159 37.5281 33.2159C37.6667 33.2159 37.7695 33.2673 37.8366 33.3701L38.3128 33.9738C38.1295 34.1884 37.9238 34.3695 37.6958 34.5171C37.4677 34.6602 37.2285 34.7764 36.9781 34.8659C36.7321 34.9508 36.4795 35.0112 36.2201 35.047C35.9653 35.0827 35.7171 35.1006 35.4756 35.1006C34.9972 35.1006 34.5523 35.0224 34.1409 34.8659C33.7295 34.7049 33.3718 34.4701 33.0677 34.1616C32.7636 33.8486 32.5244 33.464 32.35 33.0079C32.1756 32.5474 32.0884 32.0152 32.0884 31.4116C32.0884 30.9421 32.1645 30.5016 32.3165 30.0902C32.4685 29.6744 32.6854 29.3144 32.9671 29.0104C33.2533 28.7018 33.5998 28.4581 34.0067 28.2793C34.4181 28.1004 34.8809 28.011 35.3951 28.011C35.8289 28.011 36.2291 28.0803 36.5958 28.2189C36.9624 28.3575 37.2777 28.561 37.5415 28.8293C37.8053 29.0931 38.011 29.4195 38.1586 29.8085C38.3106 30.1931 38.3866 30.6335 38.3866 31.1299C38.3866 31.3803 38.3598 31.5502 38.3061 31.6396C38.2525 31.7246 38.1496 31.7671 37.9976 31.7671H33.7384Z" fill="#555555"/>
</svg>
