<svg width="32" height="36" viewBox="0 0 32 36" fill="none" xmlns="http://www.w3.org/2000/svg">
<path d="M25.8153 2.66749C25.9437 2.79636 26.0159 2.9709 26.0159 3.15287C26.0159 3.33483 25.9437 3.50937 25.8153 3.63824L24.3811 5.07374L21.6311 2.32374L23.0653 0.888241C23.1942 0.759355 23.369 0.686951 23.5513 0.686951C23.7336 0.686951 23.9085 0.759355 24.0374 0.888241L25.8153 2.66612V2.66749ZM23.409 6.04449L20.659 3.29449L11.2911 12.6637C11.2155 12.7394 11.1585 12.8317 11.1248 12.9332L10.0179 16.2525C9.9978 16.313 9.99495 16.3779 10.0096 16.4399C10.0243 16.502 10.056 16.5587 10.1011 16.6038C10.1462 16.6489 10.2029 16.6805 10.2649 16.6952C10.327 16.7099 10.3919 16.7071 10.4524 16.687L13.7716 15.5801C13.8731 15.5468 13.9653 15.4903 14.0411 15.4151L23.409 6.04449Z" fill="#555555"/>
<path fill-rule="evenodd" clip-rule="evenodd" d="M5.875 18.5625C5.875 19.1095 6.0923 19.6341 6.47909 20.0209C6.86589 20.4077 7.39049 20.625 7.9375 20.625H23.0625C23.6095 20.625 24.1341 20.4077 24.5209 20.0209C24.9077 19.6341 25.125 19.1095 25.125 18.5625V10.3125C25.125 10.1302 25.0526 9.95529 24.9236 9.82636C24.7947 9.69742 24.6198 9.62499 24.4375 9.62499C24.2552 9.62499 24.0803 9.69742 23.9514 9.82636C23.8224 9.95529 23.75 10.1302 23.75 10.3125V18.5625C23.75 18.7448 23.6776 18.9197 23.5486 19.0486C23.4197 19.1776 23.2448 19.25 23.0625 19.25H7.9375C7.75517 19.25 7.5803 19.1776 7.45137 19.0486C7.32243 18.9197 7.25 18.7448 7.25 18.5625V11V3.43749C7.25 3.25516 7.32243 3.08029 7.45137 2.95136C7.5803 2.82242 7.75517 2.74999 7.9375 2.74999H16.875C17.0573 2.74999 17.2322 2.67756 17.3611 2.54863C17.4901 2.4197 17.5625 2.24483 17.5625 2.06249C17.5625 1.88016 17.4901 1.70529 17.3611 1.57636C17.2322 1.44742 17.0573 1.37499 16.875 1.37499H7.9375C7.39049 1.37499 6.86589 1.59229 6.47909 1.97908C6.0923 2.36588 5.875 2.89048 5.875 3.43749V18.5625Z" fill="#555555"/>
<path d="M8.69207 30.1506C8.69207 30.8616 8.57358 31.5144 8.33659 32.1091C8.0996 32.7039 7.76647 33.2158 7.3372 33.6451C6.90793 34.0744 6.39147 34.4075 5.78781 34.6445C5.18415 34.8815 4.51342 35 3.77561 35H0.0798798V25.3012H3.77561C4.51342 25.3012 5.18415 25.4219 5.78781 25.6634C6.39147 25.9004 6.90793 26.2335 7.3372 26.6628C7.76647 27.0876 8.0996 27.5973 8.33659 28.1921C8.57358 28.7868 8.69207 29.4396 8.69207 30.1506ZM6.84086 30.1506C6.84086 29.6185 6.76931 29.1423 6.62622 28.7219C6.4876 28.2971 6.28415 27.9394 6.01586 27.6488C5.75203 27.3536 5.43008 27.1278 5.05 26.9713C4.67439 26.8148 4.2496 26.7366 3.77561 26.7366H1.89086V33.5646H3.77561C4.2496 33.5646 4.67439 33.4864 5.05 33.3299C5.43008 33.1734 5.75203 32.9498 6.01586 32.6591C6.28415 32.364 6.4876 32.0063 6.62622 31.586C6.76931 31.1612 6.84086 30.6827 6.84086 30.1506Z" fill="#555555"/>
<path d="M11.4683 29.3122C11.6829 28.9008 11.9378 28.5789 12.2329 28.3463C12.528 28.1093 12.8768 27.9908 13.2793 27.9908C13.5967 27.9908 13.8516 28.0602 14.0439 28.1988L13.9366 29.4396C13.9142 29.5201 13.8807 29.5782 13.836 29.614C13.7957 29.6453 13.7398 29.661 13.6683 29.661C13.6012 29.661 13.5006 29.6498 13.3664 29.6274C13.2368 29.6051 13.1093 29.5939 12.9841 29.5939C12.8008 29.5939 12.6376 29.6207 12.4945 29.6744C12.3514 29.728 12.2217 29.8063 12.1055 29.9091C11.9937 30.0075 11.8931 30.1282 11.8036 30.2713C11.7187 30.4144 11.6382 30.5776 11.5622 30.761V35H9.90547V28.1183H10.878C11.0479 28.1183 11.1664 28.1496 11.2335 28.2122C11.3006 28.2703 11.3453 28.3776 11.3677 28.5341L11.4683 29.3122Z" fill="#555555"/>
<path d="M18.4534 32.0622C17.975 32.0845 17.5725 32.127 17.2461 32.1896C16.9197 32.2478 16.6581 32.3238 16.4613 32.4177C16.2646 32.5116 16.1237 32.6211 16.0388 32.7463C15.9538 32.8715 15.9113 33.0079 15.9113 33.1555C15.9113 33.4461 15.9963 33.6541 16.1662 33.7793C16.3406 33.9045 16.5664 33.9671 16.8437 33.9671C17.1835 33.9671 17.4764 33.9067 17.7223 33.786C17.9727 33.6608 18.2164 33.473 18.4534 33.2226V32.0622ZM14.6571 29.0774C15.4485 28.353 16.401 27.9908 17.5144 27.9908C17.9168 27.9908 18.2768 28.0579 18.5943 28.1921C18.9118 28.3217 19.18 28.5051 19.3992 28.7421C19.6183 28.9746 19.7837 29.2541 19.8955 29.5805C20.0118 29.9069 20.0699 30.2646 20.0699 30.6537V35H19.3187C19.1622 35 19.0414 34.9776 18.9565 34.9329C18.8715 34.8837 18.8044 34.7876 18.7553 34.6445L18.6077 34.1482C18.4333 34.3047 18.2634 34.4433 18.0979 34.564C17.9325 34.6803 17.7603 34.7787 17.5815 34.8591C17.4026 34.9396 17.2103 35 17.0046 35.0402C16.8034 35.0849 16.5798 35.1073 16.3339 35.1073C16.0433 35.1073 15.775 35.0693 15.529 34.9933C15.2831 34.9128 15.0707 34.7943 14.8918 34.6378C14.713 34.4813 14.5744 34.2868 14.476 34.0543C14.3776 33.8217 14.3284 33.5512 14.3284 33.2427C14.3284 33.0683 14.3575 32.8961 14.4156 32.7262C14.4737 32.5518 14.5676 32.3864 14.6973 32.2299C14.8315 32.0734 15.0036 31.9258 15.2138 31.7872C15.424 31.6486 15.6811 31.5278 15.9851 31.425C16.2937 31.3221 16.6514 31.2394 17.0583 31.1768C17.4652 31.1097 17.9303 31.0695 18.4534 31.0561V30.6537C18.4534 30.1931 18.355 29.8532 18.1583 29.6341C17.9616 29.4106 17.6776 29.2988 17.3065 29.2988C17.0382 29.2988 16.8146 29.3301 16.6357 29.3927C16.4613 29.4553 16.3071 29.5268 16.1729 29.6073C16.0388 29.6833 15.9158 29.7526 15.804 29.8152C15.6967 29.8778 15.576 29.9091 15.4418 29.9091C15.3256 29.9091 15.2272 29.8801 15.1467 29.8219C15.0662 29.7593 15.0014 29.6878 14.9522 29.6073L14.6571 29.0774Z" fill="#555555"/>
<path d="M31.3909 28.1183L29.2043 35H27.8763C27.7242 35 27.6191 34.9016 27.561 34.7049L26.3269 30.7274C26.2866 30.5933 26.2486 30.4614 26.2128 30.3317C26.1815 30.1976 26.1547 30.0634 26.1324 29.9293C26.1055 30.0634 26.0742 30.1998 26.0385 30.3384C26.0072 30.4726 25.9714 30.6067 25.9311 30.7408L24.6769 34.7049C24.6232 34.9016 24.5047 35 24.3214 35H23.047L20.8671 28.1183H22.1885C22.3092 28.1183 22.412 28.1473 22.497 28.2055C22.582 28.2636 22.6378 28.3374 22.6647 28.4268L23.6507 32.1024C23.6998 32.3036 23.7423 32.5004 23.7781 32.6927C23.8183 32.8849 23.8519 33.0772 23.8787 33.2695C23.9279 33.0772 23.9793 32.8849 24.033 32.6927C24.0911 32.5004 24.1515 32.3036 24.2141 32.1024L25.3543 28.4134C25.3811 28.324 25.4326 28.2502 25.5086 28.1921C25.5891 28.1339 25.6852 28.1049 25.797 28.1049H26.5281C26.6443 28.1049 26.7427 28.1339 26.8232 28.1921C26.9082 28.2502 26.9641 28.324 26.9909 28.4134L28.0976 32.1024C28.1557 32.3036 28.2094 32.5026 28.2586 32.6994C28.3122 32.8917 28.3637 33.0839 28.4128 33.2762C28.471 32.8961 28.5537 32.5049 28.661 32.1024L29.6738 28.4268C29.7051 28.3374 29.761 28.2636 29.8415 28.2055C29.922 28.1473 30.0181 28.1183 30.1299 28.1183H31.3909Z" fill="#555555"/>
</svg>
