<svg overflow="hidden" xmlns:xlink="http://www.w3.org/1999/xlink" xmlns="http://www.w3.org/2000/svg" viewBox="76.31046119235096 334.08000000000004 1187.85151856018 208.79999999999998" style="max-height: 500px" width="1187.85151856018" height="208.79999999999998"><g><rect fill="#FFFFFF" height="720" width="1280" y="0" x="0"/><text transform="translate(84.3371 439)" font-size="21.3333" font-weight="400" font-family="Calibri,Calibri_MSFontService,sans-serif">27. 5</text><text transform="translate(330.931 441)" font-size="21.3333" font-weight="400" font-family="Calibri,Calibri_MSFontService,sans-serif">27.7</text><text transform="translate(582.757 439)" font-size="21.3333" font-weight="400" font-family="Calibri,Calibri_MSFontService,sans-serif">27.9</text><text transform="translate(455.665 439)" font-size="21.3333" font-weight="400" font-family="Calibri,Calibri_MSFontService,sans-serif">27.8</text><text transform="translate(1158.99 441)" font-size="21.3333" font-weight="400" font-family="Calibri,Calibri_MSFontService,sans-serif">28.35 GHz</text><path transform="matrix(1.83697e-16 1 1 -1.83697e-16 109.5 465.5)" fill-rule="evenodd" fill="none" stroke-miterlimit="8" stroke-width="1.33333" stroke="#000000" d="M0 0C9.94145 0 18.0006 1.34317 18.0006 3.00006L18.0006 531.545C18.0006 533.202 26.0597 534.546 36.0012 534.546 26.0597 534.546 18.0006 535.889 18.0006 537.546L18.0006 1064C18.0006 1065.66 9.94145 1067 2.12258e-15 1067"/><text transform="translate(488.082 532)" font-size="24" font-weight="400" font-family="Calibri,Calibri_MSFontService,sans-serif">17 unpaired blocks of 50 MHz</text><path fill-rule="evenodd" fill="#FFD966" d="M104.175 340.201 167.213 340.201 167.213 415.107 104.175 415.107Z"/><path fill-rule="evenodd" fill="#FFD966" d="M167.213 340.201 230.252 340.201 230.252 415.107 167.213 415.107Z"/><path fill-rule="evenodd" fill="#FFD966" d="M230.252 340.201 293.29 340.201 293.29 415.107 230.252 415.107Z"/><path fill-rule="evenodd" fill="#FFD966" d="M293.29 340.201 356.328 340.201 356.328 415.107 293.29 415.107Z"/><path fill-rule="evenodd" fill="#FFD966" d="M356.328 340.201 419.366 340.201 419.366 415.107 356.328 415.107Z"/><path fill-rule="evenodd" fill="#FFD966" d="M419.366 340.201 482.404 340.201 482.404 415.107 419.366 415.107Z"/><path fill-rule="evenodd" fill="#FFD966" d="M482.404 340.201 545.443 340.201 545.443 415.107 482.404 415.107Z"/><path fill-rule="evenodd" fill="#FFD966" d="M545.443 340.201 608.481 340.201 608.481 415.107 545.443 415.107Z"/><path fill-rule="evenodd" fill="#FFD966" d="M608.481 340.201 671.519 340.201 671.519 415.107 608.481 415.107Z"/><path fill-rule="evenodd" fill="#FFD966" d="M671.519 340.201 734.557 340.201 734.557 415.107 671.519 415.107Z"/><path fill-rule="evenodd" fill="#FFD966" d="M734.557 340.201 797.595 340.201 797.595 415.107 734.557 415.107Z"/><path fill-rule="evenodd" fill="#FFD966" d="M797.595 340.201 860.634 340.201 860.634 415.107 797.595 415.107Z"/><path fill-rule="evenodd" fill="#FFD966" d="M860.634 340.201 923.672 340.201 923.672 415.107 860.634 415.107Z"/><path fill-rule="evenodd" fill="#FFD966" d="M923.672 340.201 986.71 340.201 986.71 415.107 923.672 415.107Z"/><path fill-rule="evenodd" fill="#FFD966" d="M986.71 340.201 1049.75 340.201 1049.75 415.107 986.71 415.107Z"/><path fill-rule="evenodd" fill="#FFD966" d="M1049.75 340.201 1112.79 340.201 1112.79 415.107 1049.75 415.107Z"/><path fill-rule="evenodd" fill="#FFD966" d="M1112.79 340.201 1175.82 340.201 1175.82 415.107 1112.79 415.107Z"/><path fill-rule="evenodd" fill="none" stroke-miterlimit="10" stroke-linejoin="round" stroke-width="1.33333" stroke="#FFFFFF" d="M167.213 339.534 167.213 417.107"/><path fill-rule="evenodd" fill="none" stroke-miterlimit="10" stroke-linejoin="round" stroke-width="1.33333" stroke="#FFFFFF" d="M230.252 339.534 230.252 417.107"/><path fill-rule="evenodd" fill="none" stroke-miterlimit="10" stroke-linejoin="round" stroke-width="1.33333" stroke="#FFFFFF" d="M293.29 339.534 293.29 417.107"/><path fill-rule="evenodd" fill="none" stroke-miterlimit="10" stroke-linejoin="round" stroke-width="1.33333" stroke="#FFFFFF" d="M356.328 339.534 356.328 417.107"/><path fill-rule="evenodd" fill="none" stroke-miterlimit="10" stroke-linejoin="round" stroke-width="1.33333" stroke="#FFFFFF" d="M419.366 339.534 419.366 417.107"/><path fill-rule="evenodd" fill="none" stroke-miterlimit="10" stroke-linejoin="round" stroke-width="1.33333" stroke="#FFFFFF" d="M482.404 339.534 482.404 417.107"/><path fill-rule="evenodd" fill="none" stroke-miterlimit="10" stroke-linejoin="round" stroke-width="1.33333" stroke="#FFFFFF" d="M545.443 339.534 545.443 417.107"/><path fill-rule="evenodd" fill="none" stroke-miterlimit="10" stroke-linejoin="round" stroke-width="1.33333" stroke="#FFFFFF" d="M608.481 339.534 608.481 417.107"/><path fill-rule="evenodd" fill="none" stroke-miterlimit="10" stroke-linejoin="round" stroke-width="1.33333" stroke="#FFFFFF" d="M671.519 339.534 671.519 417.107"/><path fill-rule="evenodd" fill="none" stroke-miterlimit="10" stroke-linejoin="round" stroke-width="1.33333" stroke="#FFFFFF" d="M734.557 339.534 734.557 417.107"/><path fill-rule="evenodd" fill="none" stroke-miterlimit="10" stroke-linejoin="round" stroke-width="1.33333" stroke="#FFFFFF" d="M797.595 339.534 797.595 417.107"/><path fill-rule="evenodd" fill="none" stroke-miterlimit="10" stroke-linejoin="round" stroke-width="1.33333" stroke="#FFFFFF" d="M860.634 339.534 860.634 417.107"/><path fill-rule="evenodd" fill="none" stroke-miterlimit="10" stroke-linejoin="round" stroke-width="1.33333" stroke="#FFFFFF" d="M923.672 339.534 923.672 417.107"/><path fill-rule="evenodd" fill="none" stroke-miterlimit="10" stroke-linejoin="round" stroke-width="1.33333" stroke="#FFFFFF" d="M986.71 339.534 986.71 417.107"/><path fill-rule="evenodd" fill="none" stroke-miterlimit="10" stroke-linejoin="round" stroke-width="1.33333" stroke="#FFFFFF" d="M1049.75 339.534 1049.75 417.107"/><path fill-rule="evenodd" fill="none" stroke-miterlimit="10" stroke-linejoin="round" stroke-width="1.33333" stroke="#FFFFFF" d="M1112.79 339.534 1112.79 417.107"/><path fill-rule="evenodd" fill="none" stroke-miterlimit="10" stroke-linejoin="round" stroke-width="1.33333" stroke="#FFFFFF" d="M104.175 339.534 104.175 417.107"/><path fill-rule="evenodd" fill="none" stroke-miterlimit="10" stroke-linejoin="round" stroke-width="1.33333" stroke="#FFFFFF" d="M1175.82 339.534 1175.82 417.107"/><path fill-rule="evenodd" fill="none" stroke-miterlimit="10" stroke-linejoin="round" stroke-width="1.33333" stroke="#FFFFFF" d="M103.508 340.201 1176.49 340.201"/><path fill-rule="evenodd" fill="none" stroke-miterlimit="10" stroke-linejoin="round" stroke-width="4" stroke="#FFFFFF" d="M103.508 415.107 1176.49 415.107"/><g><text transform="translate(1123.47 383)" font-size="18.6667" font-weight="700" font-family="Calibri,Calibri_MSFontService,sans-serif">AA17</text></g><g><text transform="translate(1060.43 383)" font-size="18.6667" font-weight="700" font-family="Calibri,Calibri_MSFontService,sans-serif">AA16</text></g><g><text transform="translate(997.396 383)" font-size="18.6667" font-weight="700" font-family="Calibri,Calibri_MSFontService,sans-serif">AA15</text></g><g><text transform="translate(934.358 383)" font-size="18.6667" font-weight="700" font-family="Calibri,Calibri_MSFontService,sans-serif">AA14</text></g><g><text transform="translate(871.319 383)" font-size="18.6667" font-weight="700" font-family="Calibri,Calibri_MSFontService,sans-serif">AA13</text></g><g><text transform="translate(808.281 383)" font-size="18.6667" font-weight="700" font-family="Calibri,Calibri_MSFontService,sans-serif">AA12</text></g><g><text transform="translate(745.243 383)" font-size="18.6667" font-weight="700" font-family="Calibri,Calibri_MSFontService,sans-serif">AA11</text></g><g><text transform="translate(682.205 383)" font-size="18.6667" font-weight="700" font-family="Calibri,Calibri_MSFontService,sans-serif">AA10</text></g><text transform="translate(623.917 383)" font-size="18.6667" font-weight="700" font-family="Calibri,Calibri_MSFontService,sans-serif">AA9</text><text transform="translate(560.878 383)" font-size="18.6667" font-weight="700" font-family="Calibri,Calibri_MSFontService,sans-serif">AA8</text><text transform="translate(497.84 383)" font-size="18.6667" font-weight="700" font-family="Calibri,Calibri_MSFontService,sans-serif">AA7</text><text transform="translate(434.802 383)" font-size="18.6667" font-weight="700" font-family="Calibri,Calibri_MSFontService,sans-serif">AA6</text><text transform="translate(371.764 383)" font-size="18.6667" font-weight="700" font-family="Calibri,Calibri_MSFontService,sans-serif">AA5</text><text transform="translate(308.726 383)" font-size="18.6667" font-weight="700" font-family="Calibri,Calibri_MSFontService,sans-serif">AA4</text><text transform="translate(245.687 383)" font-size="18.6667" font-weight="700" font-family="Calibri,Calibri_MSFontService,sans-serif">AA3</text><text transform="translate(182.649 383)" font-size="18.6667" font-weight="700" font-family="Calibri,Calibri_MSFontService,sans-serif">AA2</text><text transform="translate(119.611 383)" font-size="18.6667" font-weight="700" font-family="Calibri,Calibri_MSFontService,sans-serif">AA1</text><path fill-rule="evenodd" fill="none" stroke-miterlimit="8" stroke-width="2" stroke="#7C7C7C" d="M1176 340 1176 417.268"/><path fill-rule="evenodd" fill="none" stroke-miterlimit="8" stroke-width="2" stroke="#7C7C7C" d="M107 340 107 417.268"/><text transform="translate(207.171 442)" font-size="21.3333" font-weight="400" font-family="Calibri,Calibri_MSFontService,sans-serif">27.6</text><text transform="translate(1090.46 441)" font-size="21.3333" font-weight="400" font-family="Calibri,Calibri_MSFontService,sans-serif">28.3</text><text transform="translate(965.886 440)" font-size="21.3333" font-weight="400" font-family="Calibri,Calibri_MSFontService,sans-serif">28.2</text><text transform="translate(841.151 440)" font-size="21.3333" font-weight="400" font-family="Calibri,Calibri_MSFontService,sans-serif">28.1</text><text transform="translate(711.954 439)" font-size="21.3333" font-weight="400" font-family="Calibri,Calibri_MSFontService,sans-serif">28.0</text></g></svg>