<svg width="47" height="35" viewBox="0 0 47 35" fill="none" xmlns="http://www.w3.org/2000/svg">
<path d="M20.5625 7.5625C20.7448 7.5625 20.9197 7.63493 21.0486 7.76386C21.1776 7.8928 21.25 8.06766 21.25 8.25V16.5C21.25 16.6823 21.1776 16.8572 21.0486 16.9861C20.9197 17.1151 20.7448 17.1875 20.5625 17.1875C20.3802 17.1875 20.2053 17.1151 20.0764 16.9861C19.9474 16.8572 19.875 16.6823 19.875 16.5V8.25C19.875 8.06766 19.9474 7.8928 20.0764 7.76386C20.2053 7.63493 20.3802 7.5625 20.5625 7.5625ZM24 7.5625C24.1823 7.5625 24.3572 7.63493 24.4861 7.76386C24.6151 7.8928 24.6875 8.06766 24.6875 8.25V16.5C24.6875 16.6823 24.6151 16.8572 24.4861 16.9861C24.3572 17.1151 24.1823 17.1875 24 17.1875C23.8177 17.1875 23.6428 17.1151 23.5139 16.9861C23.3849 16.8572 23.3125 16.6823 23.3125 16.5V8.25C23.3125 8.06766 23.3849 7.8928 23.5139 7.76386C23.6428 7.63493 23.8177 7.5625 24 7.5625ZM28.125 8.25C28.125 8.06766 28.0526 7.8928 27.9236 7.76386C27.7947 7.63493 27.6198 7.5625 27.4375 7.5625C27.2552 7.5625 27.0803 7.63493 26.9514 7.76386C26.8224 7.8928 26.75 8.06766 26.75 8.25V16.5C26.75 16.6823 26.8224 16.8572 26.9514 16.9861C27.0803 17.1151 27.2552 17.1875 27.4375 17.1875C27.6198 17.1875 27.7947 17.1151 27.9236 16.9861C28.0526 16.8572 28.125 16.6823 28.125 16.5V8.25Z" fill="#555555"/>
<path d="M32.9375 4.125C32.9375 4.48967 32.7926 4.83941 32.5348 5.09727C32.2769 5.35513 31.9272 5.5 31.5625 5.5H30.875V17.875C30.875 18.6043 30.5853 19.3038 30.0696 19.8195C29.5538 20.3353 28.8544 20.625 28.125 20.625H19.875C19.1457 20.625 18.4462 20.3353 17.9305 19.8195C17.4147 19.3038 17.125 18.6043 17.125 17.875V5.5H16.4375C16.0728 5.5 15.7231 5.35513 15.4652 5.09727C15.2074 4.83941 15.0625 4.48967 15.0625 4.125V2.75C15.0625 2.38533 15.2074 2.03559 15.4652 1.77773C15.7231 1.51987 16.0728 1.375 16.4375 1.375H21.25C21.25 1.01033 21.3949 0.660591 21.6527 0.402728C21.9106 0.144866 22.2603 0 22.625 0H25.375C25.7397 0 26.0894 0.144866 26.3473 0.402728C26.6051 0.660591 26.75 1.01033 26.75 1.375H31.5625C31.9272 1.375 32.2769 1.51987 32.5348 1.77773C32.7926 2.03559 32.9375 2.38533 32.9375 2.75V4.125ZM18.6623 5.5L18.5 5.58113V17.875C18.5 18.2397 18.6449 18.5894 18.9027 18.8473C19.1606 19.1051 19.5103 19.25 19.875 19.25H28.125C28.4897 19.25 28.8394 19.1051 29.0973 18.8473C29.3551 18.5894 29.5 18.2397 29.5 17.875V5.58113L29.3378 5.5H18.6623ZM16.4375 4.125H31.5625V2.75H16.4375V4.125Z" fill="#555555"/>
<path d="M4.65501 27.085C4.61501 27.155 4.57168 27.2067 4.52501 27.24C4.48168 27.27 4.42668 27.285 4.36001 27.285C4.29001 27.285 4.21334 27.26 4.13001 27.21C4.05001 27.1567 3.95334 27.0983 3.84001 27.035C3.72668 26.9717 3.59334 26.915 3.44001 26.865C3.29001 26.8117 3.11168 26.785 2.90501 26.785C2.71834 26.785 2.55501 26.8083 2.41501 26.855C2.27501 26.8983 2.15668 26.96 2.06001 27.04C1.96668 27.12 1.89668 27.2167 1.85001 27.33C1.80334 27.44 1.78001 27.5617 1.78001 27.695C1.78001 27.865 1.82668 28.0067 1.92001 28.12C2.01668 28.2333 2.14334 28.33 2.30001 28.41C2.45668 28.49 2.63501 28.5617 2.83501 28.625C3.03501 28.6883 3.24001 28.7567 3.45001 28.83C3.66001 28.9 3.86501 28.9833 4.06501 29.08C4.26501 29.1733 4.44334 29.2933 4.60001 29.44C4.75668 29.5833 4.88168 29.76 4.97501 29.97C5.07168 30.18 5.12001 30.435 5.12001 30.735C5.12001 31.0617 5.06334 31.3683 4.95001 31.655C4.84001 31.9383 4.67668 32.1867 4.46001 32.4C4.24668 32.61 3.98501 32.7767 3.67501 32.9C3.36501 33.02 3.01001 33.08 2.61001 33.08C2.38001 33.08 2.15334 33.0567 1.93001 33.01C1.70668 32.9667 1.49168 32.9033 1.28501 32.82C1.08168 32.7367 0.890011 32.6367 0.710011 32.52C0.530011 32.4033 0.370011 32.2733 0.230011 32.13L0.625011 31.485C0.658344 31.4383 0.701678 31.4 0.755011 31.37C0.808344 31.3367 0.865011 31.32 0.925011 31.32C1.00834 31.32 1.09834 31.355 1.19501 31.425C1.29168 31.4917 1.40668 31.5667 1.54001 31.65C1.67334 31.7333 1.82834 31.81 2.00501 31.88C2.18501 31.9467 2.40001 31.98 2.65001 31.98C3.03334 31.98 3.33001 31.89 3.54001 31.71C3.75001 31.5267 3.85501 31.265 3.85501 30.925C3.85501 30.735 3.80668 30.58 3.71001 30.46C3.61668 30.34 3.49168 30.24 3.33501 30.16C3.17834 30.0767 3.00001 30.0067 2.80001 29.95C2.60001 29.8933 2.39668 29.8317 2.19001 29.765C1.98334 29.6983 1.78001 29.6183 1.58001 29.525C1.38001 29.4317 1.20168 29.31 1.04501 29.16C0.888344 29.01 0.761678 28.8233 0.665011 28.6C0.571678 28.3733 0.525011 28.095 0.525011 27.765C0.525011 27.5017 0.576678 27.245 0.680011 26.995C0.786678 26.745 0.940011 26.5233 1.14001 26.33C1.34001 26.1367 1.58668 25.9817 1.88001 25.865C2.17334 25.7483 2.51001 25.69 2.89001 25.69C3.31668 25.69 3.71001 25.7567 4.07001 25.89C4.43001 26.0233 4.73668 26.21 4.99001 26.45L4.65501 27.085Z" fill="#555555"/>
<path d="M10.4304 27.87V33H9.6754C9.51207 33 9.40874 32.925 9.3654 32.775L9.2804 32.365C9.0704 32.5783 8.83873 32.7517 8.5854 32.885C8.33207 33.015 8.03373 33.08 7.6904 33.08C7.4104 33.08 7.16207 33.0333 6.9454 32.94C6.73207 32.8433 6.55207 32.7083 6.4054 32.535C6.25874 32.3617 6.14707 32.1567 6.0704 31.92C5.99707 31.68 5.9604 31.4167 5.9604 31.13V27.87H7.1954V31.13C7.1954 31.4433 7.26707 31.6867 7.4104 31.86C7.55707 32.03 7.7754 32.115 8.0654 32.115C8.27874 32.115 8.47873 32.0683 8.6654 31.975C8.85207 31.8783 9.02874 31.7467 9.1954 31.58V27.87H10.4304Z" fill="#555555"/>
<path d="M12.8899 31.67C13.0299 31.84 13.1816 31.96 13.3449 32.03C13.5116 32.1 13.6916 32.135 13.8849 32.135C14.0716 32.135 14.2399 32.1 14.3899 32.03C14.5399 31.96 14.6666 31.8533 14.7699 31.71C14.8766 31.5667 14.9583 31.3867 15.0149 31.17C15.0716 30.95 15.0999 30.6917 15.0999 30.395C15.0999 30.095 15.0749 29.8417 15.0249 29.635C14.9783 29.425 14.9099 29.255 14.8199 29.125C14.7299 28.995 14.6199 28.9 14.4899 28.84C14.3633 28.78 14.2183 28.75 14.0549 28.75C13.7983 28.75 13.5799 28.805 13.3999 28.915C13.2199 29.0217 13.0499 29.1733 12.8899 29.37V31.67ZM12.8249 28.57C13.0349 28.3333 13.2733 28.1417 13.5399 27.995C13.8066 27.8483 14.1199 27.775 14.4799 27.775C14.7599 27.775 15.0149 27.8333 15.2449 27.95C15.4783 28.0667 15.6783 28.2367 15.8449 28.46C16.0149 28.68 16.1449 28.9533 16.2349 29.28C16.3283 29.6033 16.3749 29.975 16.3749 30.395C16.3749 30.7783 16.3233 31.1333 16.2199 31.46C16.1166 31.7867 15.9683 32.07 15.7749 32.31C15.5849 32.55 15.3533 32.7383 15.0799 32.875C14.8099 33.0083 14.5066 33.075 14.1699 33.075C13.8833 33.075 13.6383 33.0317 13.4349 32.945C13.2316 32.855 13.0499 32.7317 12.8899 32.575V34.675H11.6549V27.87H12.4099C12.5699 27.87 12.6749 27.945 12.7249 28.095L12.8249 28.57Z" fill="#555555"/>
<path d="M18.5735 31.67C18.7135 31.84 18.8652 31.96 19.0285 32.03C19.1952 32.1 19.3752 32.135 19.5685 32.135C19.7552 32.135 19.9235 32.1 20.0735 32.03C20.2235 31.96 20.3502 31.8533 20.4535 31.71C20.5602 31.5667 20.6419 31.3867 20.6985 31.17C20.7552 30.95 20.7835 30.6917 20.7835 30.395C20.7835 30.095 20.7585 29.8417 20.7085 29.635C20.6619 29.425 20.5935 29.255 20.5035 29.125C20.4135 28.995 20.3035 28.9 20.1735 28.84C20.0469 28.78 19.9019 28.75 19.7385 28.75C19.4819 28.75 19.2635 28.805 19.0835 28.915C18.9035 29.0217 18.7335 29.1733 18.5735 29.37V31.67ZM18.5085 28.57C18.7185 28.3333 18.9569 28.1417 19.2235 27.995C19.4902 27.8483 19.8035 27.775 20.1635 27.775C20.4435 27.775 20.6985 27.8333 20.9285 27.95C21.1619 28.0667 21.3619 28.2367 21.5285 28.46C21.6985 28.68 21.8285 28.9533 21.9185 29.28C22.0119 29.6033 22.0585 29.975 22.0585 30.395C22.0585 30.7783 22.0069 31.1333 21.9035 31.46C21.8002 31.7867 21.6519 32.07 21.4585 32.31C21.2685 32.55 21.0369 32.7383 20.7635 32.875C20.4935 33.0083 20.1902 33.075 19.8535 33.075C19.5669 33.075 19.3219 33.0317 19.1185 32.945C18.9152 32.855 18.7335 32.7317 18.5735 32.575V34.675H17.3385V27.87H18.0935C18.2535 27.87 18.3585 27.945 18.4085 28.095L18.5085 28.57Z" fill="#555555"/>
<path d="M24.1871 28.76C24.3471 28.4533 24.5371 28.2133 24.7571 28.04C24.9771 27.8633 25.2371 27.775 25.5371 27.775C25.7738 27.775 25.9638 27.8267 26.1071 27.93L26.0271 28.855C26.0105 28.915 25.9855 28.9583 25.9521 28.985C25.9221 29.0083 25.8805 29.02 25.8271 29.02C25.7771 29.02 25.7021 29.0117 25.6021 28.995C25.5055 28.9783 25.4105 28.97 25.3171 28.97C25.1805 28.97 25.0588 28.99 24.9521 29.03C24.8455 29.07 24.7488 29.1283 24.6621 29.205C24.5788 29.2783 24.5038 29.3683 24.4371 29.475C24.3738 29.5817 24.3138 29.7033 24.2571 29.84V33H23.0221V27.87H23.7471C23.8738 27.87 23.9621 27.8933 24.0121 27.94C24.0621 27.9833 24.0955 28.0633 24.1121 28.18L24.1871 28.76Z" fill="#555555"/>
<path d="M28.0326 27.87V33H26.7926V27.87H28.0326ZM28.2026 26.375C28.2026 26.4817 28.1809 26.5817 28.1376 26.675C28.0943 26.7683 28.0359 26.85 27.9626 26.92C27.8926 26.99 27.8093 27.0467 27.7126 27.09C27.6159 27.13 27.5126 27.15 27.4026 27.15C27.2959 27.15 27.1943 27.13 27.0976 27.09C27.0043 27.0467 26.9226 26.99 26.8526 26.92C26.7826 26.85 26.7259 26.7683 26.6826 26.675C26.6426 26.5817 26.6226 26.4817 26.6226 26.375C26.6226 26.265 26.6426 26.1617 26.6826 26.065C26.7259 25.9683 26.7826 25.885 26.8526 25.815C26.9226 25.745 27.0043 25.69 27.0976 25.65C27.1943 25.6067 27.2959 25.585 27.4026 25.585C27.5126 25.585 27.6159 25.6067 27.7126 25.65C27.8093 25.69 27.8926 25.745 27.9626 25.815C28.0359 25.885 28.0943 25.9683 28.1376 26.065C28.1809 26.1617 28.2026 26.265 28.2026 26.375Z" fill="#555555"/>
<path d="M29.2917 33V27.87H30.0467C30.2067 27.87 30.3117 27.945 30.3617 28.095L30.4417 28.475C30.5317 28.375 30.625 28.2833 30.7217 28.2C30.8217 28.1167 30.9267 28.045 31.0367 27.985C31.15 27.925 31.27 27.8783 31.3967 27.845C31.5267 27.8083 31.6683 27.79 31.8217 27.79C32.145 27.79 32.41 27.8783 32.6167 28.055C32.8267 28.2283 32.9833 28.46 33.0867 28.75C33.1667 28.58 33.2667 28.435 33.3867 28.315C33.5067 28.1917 33.6383 28.0917 33.7817 28.015C33.925 27.9383 34.0767 27.8817 34.2367 27.845C34.4 27.8083 34.5633 27.79 34.7267 27.79C35.01 27.79 35.2617 27.8333 35.4817 27.92C35.7017 28.0067 35.8867 28.1333 36.0367 28.3C36.1867 28.4667 36.3 28.67 36.3767 28.91C36.4567 29.15 36.4967 29.425 36.4967 29.735V33H35.2617V29.735C35.2617 29.4083 35.19 29.1633 35.0466 29C34.9033 28.8333 34.6933 28.75 34.4167 28.75C34.29 28.75 34.1717 28.7717 34.0617 28.815C33.955 28.8583 33.86 28.9217 33.7767 29.005C33.6967 29.085 33.6333 29.1867 33.5867 29.31C33.54 29.4333 33.5167 29.575 33.5167 29.735V33H32.2767V29.735C32.2767 29.3917 32.2067 29.1417 32.0667 28.985C31.93 28.8283 31.7283 28.75 31.4617 28.75C31.2817 28.75 31.1133 28.795 30.9567 28.885C30.8033 28.9717 30.66 29.0917 30.5267 29.245V33H29.2917Z" fill="#555555"/>
<path d="M40.9756 29.845C40.9756 29.685 40.9522 29.535 40.9056 29.395C40.8622 29.2517 40.7956 29.1267 40.7056 29.02C40.6156 28.9133 40.5006 28.83 40.3606 28.77C40.2239 28.7067 40.0639 28.675 39.8806 28.675C39.5239 28.675 39.2422 28.7767 39.0356 28.98C38.8322 29.1833 38.7022 29.4717 38.6456 29.845H40.9756ZM38.6206 30.59C38.6406 30.8533 38.6872 31.0817 38.7606 31.275C38.8339 31.465 38.9306 31.6233 39.0506 31.75C39.1706 31.8733 39.3122 31.9667 39.4756 32.03C39.6422 32.09 39.8256 32.12 40.0256 32.12C40.2256 32.12 40.3972 32.0967 40.5406 32.05C40.6872 32.0033 40.8139 31.9517 40.9206 31.895C41.0306 31.8383 41.1256 31.7867 41.2056 31.74C41.2889 31.6933 41.3689 31.67 41.4456 31.67C41.5489 31.67 41.6256 31.7083 41.6756 31.785L42.0306 32.235C41.8939 32.395 41.7406 32.53 41.5706 32.64C41.4006 32.7467 41.2222 32.8333 41.0356 32.9C40.8522 32.9633 40.6639 33.0083 40.4706 33.035C40.2806 33.0617 40.0956 33.075 39.9156 33.075C39.5589 33.075 39.2272 33.0167 38.9206 32.9C38.6139 32.78 38.3472 32.605 38.1206 32.375C37.8939 32.1417 37.7156 31.855 37.5856 31.515C37.4556 31.1717 37.3906 30.775 37.3906 30.325C37.3906 29.975 37.4472 29.6467 37.5606 29.34C37.6739 29.03 37.8356 28.7617 38.0456 28.535C38.2589 28.305 38.5172 28.1233 38.8206 27.99C39.1272 27.8567 39.4722 27.79 39.8556 27.79C40.1789 27.79 40.4772 27.8417 40.7506 27.945C41.0239 28.0483 41.2589 28.2 41.4556 28.4C41.6522 28.5967 41.8056 28.84 41.9156 29.13C42.0289 29.4167 42.0856 29.745 42.0856 30.115C42.0856 30.3017 42.0656 30.4283 42.0256 30.495C41.9856 30.5583 41.9089 30.59 41.7956 30.59H38.6206Z" fill="#555555"/>
<path d="M44.1774 28.76C44.3374 28.4533 44.5274 28.2133 44.7474 28.04C44.9674 27.8633 45.2274 27.775 45.5274 27.775C45.764 27.775 45.954 27.8267 46.0974 27.93L46.0174 28.855C46.0007 28.915 45.9757 28.9583 45.9424 28.985C45.9124 29.0083 45.8707 29.02 45.8174 29.02C45.7674 29.02 45.6924 29.0117 45.5924 28.995C45.4957 28.9783 45.4007 28.97 45.3074 28.97C45.1707 28.97 45.049 28.99 44.9424 29.03C44.8357 29.07 44.739 29.1283 44.6524 29.205C44.569 29.2783 44.494 29.3683 44.4274 29.475C44.364 29.5817 44.304 29.7033 44.2474 29.84V33H43.0124V27.87H43.7374C43.864 27.87 43.9524 27.8933 44.0024 27.94C44.0524 27.9833 44.0857 28.0633 44.1024 28.18L44.1774 28.76Z" fill="#555555"/>
</svg>
