<svg width="39" height="33" viewBox="0 0 39 33" fill="none" xmlns="http://www.w3.org/2000/svg">
<path d="M29.8152 2.66751C29.9437 2.79638 30.0158 2.97092 30.0158 3.15288C30.0158 3.33485 29.9437 3.50939 29.8152 3.63826L28.3811 5.07376L25.6311 2.32376L27.0652 0.888257C27.1942 0.75937 27.369 0.686966 27.5513 0.686966C27.7336 0.686966 27.9084 0.75937 28.0374 0.888257L29.8152 2.66613V2.66751ZM27.409 6.04451L24.659 3.29451L15.2911 12.6638C15.2154 12.7394 15.1585 12.8317 15.1247 12.9333L14.0179 16.2525C13.9978 16.313 13.9949 16.3779 14.0096 16.44C14.0243 16.502 14.056 16.5587 14.1011 16.6038C14.1461 16.6489 14.2029 16.6805 14.2649 16.6952C14.327 16.7099 14.3919 16.7071 14.4524 16.687L17.7716 15.5801C17.873 15.5468 17.9653 15.4903 18.0411 15.4151L27.409 6.04451Z" fill="#555555"/>
<path fill-rule="evenodd" clip-rule="evenodd" d="M9.87499 18.5625C9.87499 19.1095 10.0923 19.6341 10.4791 20.0209C10.8659 20.4077 11.3905 20.625 11.9375 20.625H27.0625C27.6095 20.625 28.1341 20.4077 28.5209 20.0209C28.9077 19.6341 29.125 19.1095 29.125 18.5625V10.3125C29.125 10.1302 29.0526 9.9553 28.9236 9.82637C28.7947 9.69744 28.6198 9.62501 28.4375 9.62501C28.2552 9.62501 28.0803 9.69744 27.9514 9.82637C27.8224 9.9553 27.75 10.1302 27.75 10.3125V18.5625C27.75 18.7448 27.6776 18.9197 27.5486 19.0486C27.4197 19.1776 27.2448 19.25 27.0625 19.25H11.9375C11.7552 19.25 11.5803 19.1776 11.4514 19.0486C11.3224 18.9197 11.25 18.7448 11.25 18.5625V3.43751C11.25 3.25517 11.3224 3.0803 11.4514 2.95137C11.5803 2.82244 11.7552 2.75001 11.9375 2.75001H20.875C21.0573 2.75001 21.2322 2.67757 21.3611 2.54864C21.4901 2.41971 21.5625 2.24484 21.5625 2.06251C21.5625 1.88017 21.4901 1.7053 21.3611 1.57637C21.2322 1.44744 21.0573 1.37501 20.875 1.37501H11.9375C11.3905 1.37501 10.8659 1.59231 10.4791 1.9791C10.0923 2.36589 9.87499 2.8905 9.87499 3.43751V18.5625Z" fill="#555555"/>
<path d="M7.22499 28.385C7.22499 28.915 7.13666 29.4017 6.95999 29.845C6.78333 30.2883 6.53499 30.67 6.21499 30.99C5.89499 31.31 5.50999 31.5583 5.05999 31.735C4.60999 31.9117 4.10999 32 3.55999 32H0.804993V24.77H3.55999C4.10999 24.77 4.60999 24.86 5.05999 25.04C5.50999 25.2167 5.89499 25.465 6.21499 25.785C6.53499 26.1017 6.78333 26.4817 6.95999 26.925C7.13666 27.3683 7.22499 27.855 7.22499 28.385ZM5.84499 28.385C5.84499 27.9883 5.79166 27.6333 5.68499 27.32C5.58166 27.0033 5.42999 26.7367 5.22999 26.52C5.03333 26.3 4.79333 26.1317 4.50999 26.015C4.22999 25.8983 3.91333 25.84 3.55999 25.84H2.15499V30.93H3.55999C3.91333 30.93 4.22999 30.8717 4.50999 30.755C4.79333 30.6383 5.03333 30.4717 5.22999 30.255C5.42999 30.035 5.58166 29.7683 5.68499 29.455C5.79166 29.1383 5.84499 28.7817 5.84499 28.385Z" fill="#555555"/>
<path d="M11.4541 28.845C11.4541 28.685 11.4307 28.535 11.3841 28.395C11.3407 28.2517 11.2741 28.1267 11.1841 28.02C11.0941 27.9133 10.9791 27.83 10.8391 27.77C10.7024 27.7067 10.5424 27.675 10.3591 27.675C10.0024 27.675 9.72072 27.7767 9.51406 27.98C9.31072 28.1833 9.18072 28.4717 9.12405 28.845H11.4541ZM9.09906 29.59C9.11906 29.8533 9.16572 30.0817 9.23905 30.275C9.31239 30.465 9.40906 30.6233 9.52906 30.75C9.64906 30.8733 9.79072 30.9667 9.95405 31.03C10.1207 31.09 10.3041 31.12 10.5041 31.12C10.7041 31.12 10.8757 31.0967 11.0191 31.05C11.1657 31.0033 11.2924 30.9517 11.3991 30.895C11.5091 30.8383 11.6041 30.7867 11.6841 30.74C11.7674 30.6933 11.8474 30.67 11.9241 30.67C12.0274 30.67 12.1041 30.7083 12.1541 30.785L12.5091 31.235C12.3724 31.395 12.2191 31.53 12.0491 31.64C11.8791 31.7467 11.7007 31.8333 11.5141 31.9C11.3307 31.9633 11.1424 32.0083 10.9491 32.035C10.7591 32.0617 10.5741 32.075 10.3941 32.075C10.0374 32.075 9.70572 32.0167 9.39906 31.9C9.09239 31.78 8.82572 31.605 8.59906 31.375C8.37239 31.1417 8.19405 30.855 8.06405 30.515C7.93405 30.1717 7.86906 29.775 7.86906 29.325C7.86906 28.975 7.92572 28.6467 8.03906 28.34C8.15239 28.03 8.31405 27.7617 8.52406 27.535C8.73739 27.305 8.99572 27.1233 9.29906 26.99C9.60572 26.8567 9.95072 26.79 10.3341 26.79C10.6574 26.79 10.9557 26.8417 11.2291 26.945C11.5024 27.0483 11.7374 27.2 11.9341 27.4C12.1307 27.5967 12.2841 27.84 12.3941 28.13C12.5074 28.4167 12.5641 28.745 12.5641 29.115C12.5641 29.3017 12.5441 29.4283 12.5041 29.495C12.4641 29.5583 12.3874 29.59 12.2741 29.59H9.09906Z" fill="#555555"/>
<path d="M16.6209 27.87C16.5875 27.9233 16.5525 27.9617 16.5159 27.985C16.4792 28.005 16.4325 28.015 16.3759 28.015C16.3159 28.015 16.2509 27.9983 16.1809 27.965C16.1142 27.9317 16.0359 27.895 15.9459 27.855C15.8559 27.8117 15.7525 27.7733 15.6359 27.74C15.5225 27.7067 15.3875 27.69 15.2309 27.69C14.9875 27.69 14.7959 27.7417 14.6559 27.845C14.5192 27.9483 14.4509 28.0833 14.4509 28.25C14.4509 28.36 14.4859 28.4533 14.5559 28.53C14.6292 28.6033 14.7242 28.6683 14.8409 28.725C14.9609 28.7817 15.0959 28.8333 15.2459 28.88C15.3959 28.9233 15.5475 28.9717 15.7009 29.025C15.8575 29.0783 16.0109 29.14 16.1609 29.21C16.3109 29.2767 16.4442 29.3633 16.5609 29.47C16.6809 29.5733 16.7759 29.6983 16.8459 29.845C16.9192 29.9917 16.9559 30.1683 16.9559 30.375C16.9559 30.6217 16.9109 30.85 16.8209 31.06C16.7342 31.2667 16.6042 31.4467 16.4309 31.6C16.2575 31.75 16.0425 31.8683 15.7859 31.955C15.5325 32.0383 15.2392 32.08 14.9059 32.08C14.7292 32.08 14.5559 32.0633 14.3859 32.03C14.2192 32 14.0575 31.9567 13.9009 31.9C13.7475 31.8433 13.6042 31.7767 13.4709 31.7C13.3409 31.6233 13.2259 31.54 13.1259 31.45L13.4109 30.98C13.4475 30.9233 13.4909 30.88 13.5409 30.85C13.5909 30.82 13.6542 30.805 13.7309 30.805C13.8075 30.805 13.8792 30.8267 13.9459 30.87C14.0159 30.9133 14.0959 30.96 14.1859 31.01C14.2759 31.06 14.3809 31.1067 14.5009 31.15C14.6242 31.1933 14.7792 31.215 14.9659 31.215C15.1125 31.215 15.2375 31.1983 15.3409 31.165C15.4475 31.1283 15.5342 31.0817 15.6009 31.025C15.6709 30.9683 15.7209 30.9033 15.7509 30.83C15.7842 30.7533 15.8009 30.675 15.8009 30.595C15.8009 30.475 15.7642 30.3767 15.6909 30.3C15.6209 30.2233 15.5259 30.1567 15.4059 30.1C15.2892 30.0433 15.1542 29.9933 15.0009 29.95C14.8509 29.9033 14.6959 29.8533 14.5359 29.8C14.3792 29.7467 14.2242 29.685 14.0709 29.615C13.9209 29.5417 13.7859 29.45 13.6659 29.34C13.5492 29.23 13.4542 29.095 13.3809 28.935C13.3109 28.775 13.2759 28.5817 13.2759 28.355C13.2759 28.145 13.3175 27.945 13.4009 27.755C13.4842 27.565 13.6059 27.4 13.7659 27.26C13.9292 27.1167 14.1309 27.0033 14.3709 26.92C14.6142 26.8333 14.8942 26.79 15.2109 26.79C15.5642 26.79 15.8859 26.8483 16.1759 26.965C16.4659 27.0817 16.7075 27.235 16.9009 27.425L16.6209 27.87Z" fill="#555555"/>
<path d="M21.0154 27.87C20.982 27.9233 20.947 27.9617 20.9104 27.985C20.8737 28.005 20.8271 28.015 20.7704 28.015C20.7104 28.015 20.6454 27.9983 20.5754 27.965C20.5087 27.9317 20.4304 27.895 20.3404 27.855C20.2504 27.8117 20.1471 27.7733 20.0304 27.74C19.9171 27.7067 19.7821 27.69 19.6254 27.69C19.382 27.69 19.1904 27.7417 19.0504 27.845C18.9137 27.9483 18.8454 28.0833 18.8454 28.25C18.8454 28.36 18.8804 28.4533 18.9504 28.53C19.0237 28.6033 19.1187 28.6683 19.2354 28.725C19.3554 28.7817 19.4904 28.8333 19.6404 28.88C19.7904 28.9233 19.942 28.9717 20.0954 29.025C20.252 29.0783 20.4054 29.14 20.5554 29.21C20.7054 29.2767 20.8387 29.3633 20.9554 29.47C21.0754 29.5733 21.1704 29.6983 21.2404 29.845C21.3137 29.9917 21.3504 30.1683 21.3504 30.375C21.3504 30.6217 21.3054 30.85 21.2154 31.06C21.1287 31.2667 20.9987 31.4467 20.8254 31.6C20.6521 31.75 20.4371 31.8683 20.1804 31.955C19.9271 32.0383 19.6337 32.08 19.3004 32.08C19.1237 32.08 18.9504 32.0633 18.7804 32.03C18.6137 32 18.4521 31.9567 18.2954 31.9C18.1421 31.8433 17.9987 31.7767 17.8654 31.7C17.7354 31.6233 17.6204 31.54 17.5204 31.45L17.8054 30.98C17.8421 30.9233 17.8854 30.88 17.9354 30.85C17.9854 30.82 18.0487 30.805 18.1254 30.805C18.2021 30.805 18.2737 30.8267 18.3404 30.87C18.4104 30.9133 18.4904 30.96 18.5804 31.01C18.6704 31.06 18.7754 31.1067 18.8954 31.15C19.0187 31.1933 19.1737 31.215 19.3604 31.215C19.5071 31.215 19.6321 31.1983 19.7354 31.165C19.8421 31.1283 19.9287 31.0817 19.9954 31.025C20.0654 30.9683 20.1154 30.9033 20.1454 30.83C20.1787 30.7533 20.1954 30.675 20.1954 30.595C20.1954 30.475 20.1587 30.3767 20.0854 30.3C20.0154 30.2233 19.9204 30.1567 19.8004 30.1C19.6837 30.0433 19.5487 29.9933 19.3954 29.95C19.2454 29.9033 19.0904 29.8533 18.9304 29.8C18.7737 29.7467 18.6187 29.685 18.4654 29.615C18.3154 29.5417 18.1804 29.45 18.0604 29.34C17.9437 29.23 17.8487 29.095 17.7754 28.935C17.7054 28.775 17.6704 28.5817 17.6704 28.355C17.6704 28.145 17.7121 27.945 17.7954 27.755C17.8787 27.565 18.0004 27.4 18.1604 27.26C18.3237 27.1167 18.5254 27.0033 18.7654 26.92C19.0087 26.8333 19.2887 26.79 19.6054 26.79C19.9587 26.79 20.2804 26.8483 20.5704 26.965C20.8604 27.0817 21.1021 27.235 21.2954 27.425L21.0154 27.87Z" fill="#555555"/>
<path d="M23.5599 26.87V32H22.3199V26.87H23.5599ZM23.7299 25.375C23.7299 25.4817 23.7082 25.5817 23.6649 25.675C23.6216 25.7683 23.5632 25.85 23.4899 25.92C23.4199 25.99 23.3366 26.0467 23.2399 26.09C23.1432 26.13 23.0399 26.15 22.9299 26.15C22.8232 26.15 22.7216 26.13 22.6249 26.09C22.5316 26.0467 22.4499 25.99 22.3799 25.92C22.3099 25.85 22.2532 25.7683 22.2099 25.675C22.1699 25.5817 22.1499 25.4817 22.1499 25.375C22.1499 25.265 22.1699 25.1617 22.2099 25.065C22.2532 24.9683 22.3099 24.885 22.3799 24.815C22.4499 24.745 22.5316 24.69 22.6249 24.65C22.7216 24.6067 22.8232 24.585 22.9299 24.585C23.0399 24.585 23.1432 24.6067 23.2399 24.65C23.3366 24.69 23.4199 24.745 23.4899 24.815C23.5632 24.885 23.6216 24.9683 23.6649 25.065C23.7082 25.1617 23.7299 25.265 23.7299 25.375Z" fill="#555555"/>
<path d="M25.974 27.5C26.0773 27.3967 26.1856 27.3017 26.299 27.215C26.4156 27.125 26.5373 27.05 26.664 26.99C26.794 26.9267 26.9323 26.8783 27.079 26.845C27.2256 26.8083 27.3856 26.79 27.559 26.79C27.839 26.79 28.0873 26.8383 28.304 26.935C28.5206 27.0283 28.7006 27.1617 28.844 27.335C28.9906 27.505 29.1006 27.71 29.174 27.95C29.2506 28.1867 29.289 28.4483 29.289 28.735V32H28.054V28.735C28.054 28.4217 27.9823 28.18 27.839 28.01C27.6956 27.8367 27.4773 27.75 27.184 27.75C26.9706 27.75 26.7706 27.7983 26.584 27.895C26.3973 27.9917 26.2206 28.1233 26.054 28.29V32H24.819V26.87H25.574C25.734 26.87 25.839 26.945 25.889 27.095L25.974 27.5Z" fill="#555555"/>
<path d="M33.7685 28.845C33.7685 28.685 33.7452 28.535 33.6985 28.395C33.6552 28.2517 33.5885 28.1267 33.4985 28.02C33.4085 27.9133 33.2935 27.83 33.1535 27.77C33.0168 27.7067 32.8568 27.675 32.6735 27.675C32.3168 27.675 32.0352 27.7767 31.8285 27.98C31.6252 28.1833 31.4952 28.4717 31.4385 28.845H33.7685ZM31.4135 29.59C31.4335 29.8533 31.4802 30.0817 31.5535 30.275C31.6268 30.465 31.7235 30.6233 31.8435 30.75C31.9635 30.8733 32.1052 30.9667 32.2685 31.03C32.4352 31.09 32.6185 31.12 32.8185 31.12C33.0185 31.12 33.1902 31.0967 33.3335 31.05C33.4802 31.0033 33.6068 30.9517 33.7135 30.895C33.8235 30.8383 33.9185 30.7867 33.9985 30.74C34.0818 30.6933 34.1618 30.67 34.2385 30.67C34.3418 30.67 34.4185 30.7083 34.4685 30.785L34.8235 31.235C34.6868 31.395 34.5335 31.53 34.3635 31.64C34.1935 31.7467 34.0152 31.8333 33.8285 31.9C33.6452 31.9633 33.4568 32.0083 33.2635 32.035C33.0735 32.0617 32.8885 32.075 32.7085 32.075C32.3518 32.075 32.0202 32.0167 31.7135 31.9C31.4068 31.78 31.1402 31.605 30.9135 31.375C30.6868 31.1417 30.5085 30.855 30.3785 30.515C30.2485 30.1717 30.1835 29.775 30.1835 29.325C30.1835 28.975 30.2402 28.6467 30.3535 28.34C30.4668 28.03 30.6285 27.7617 30.8385 27.535C31.0518 27.305 31.3102 27.1233 31.6135 26.99C31.9202 26.8567 32.2652 26.79 32.6485 26.79C32.9718 26.79 33.2702 26.8417 33.5435 26.945C33.8168 27.0483 34.0518 27.2 34.2485 27.4C34.4452 27.5967 34.5985 27.84 34.7085 28.13C34.8218 28.4167 34.8785 28.745 34.8785 29.115C34.8785 29.3017 34.8585 29.4283 34.8185 29.495C34.7785 29.5583 34.7018 29.59 34.5885 29.59H31.4135Z" fill="#555555"/>
<path d="M36.9703 27.76C37.1303 27.4533 37.3203 27.2133 37.5403 27.04C37.7603 26.8633 38.0203 26.775 38.3203 26.775C38.557 26.775 38.747 26.8267 38.8903 26.93L38.8103 27.855C38.7936 27.915 38.7686 27.9583 38.7353 27.985C38.7053 28.0083 38.6636 28.02 38.6103 28.02C38.5603 28.02 38.4853 28.0117 38.3853 27.995C38.2886 27.9783 38.1936 27.97 38.1003 27.97C37.9636 27.97 37.842 27.99 37.7353 28.03C37.6286 28.07 37.532 28.1283 37.4453 28.205C37.362 28.2783 37.287 28.3683 37.2203 28.475C37.157 28.5817 37.097 28.7033 37.0403 28.84V32H35.8053V26.87H36.5303C36.657 26.87 36.7453 26.8933 36.7953 26.94C36.8453 26.9833 36.8786 27.0633 36.8953 27.18L36.9703 27.76Z" fill="#555555"/>
</svg>
