<svg id="Layer_1" data-name="Layer 1" xmlns="http://www.w3.org/2000/svg" viewBox="0 0 50 51"><defs><style>.cls-1{fill:#133649;}.cls-2{fill:none;stroke:#133649;stroke-width:2px;}</style></defs><path id="noun_Business_ideas_1293477_a" data-name="noun Business ideas 1293477 a" class="cls-1" d="M49.73,17.14a16.94,16.94,0,1,0-33.87-.26v.26c0,6.13,3.91,10.69,5.61,12.38,2.54,2.54,3.6,4.34,3.91,6.67H24.33V38.3h1.05v2.12H24.33v2.12h1.05v2.11a2.17,2.17,0,0,0,2.12,2.12h1.06v2.12A2.17,2.17,0,0,0,30.68,51h4.23A2.17,2.17,0,0,0,37,48.88V46.77h1.06a2.17,2.17,0,0,0,2.11-2.12V42.54h1.06V40.42H40.2V38.3h1.06V36.19H40.2c.21-2.33,1.27-4,3.92-6.67C45.81,27.83,49.73,23.27,49.73,17.14ZM34.91,48.89H30.68V46.77h4.23Zm3.17-3.18V44.65h0Zm0-9.52H29.62V38.3h8.46v2.12H29.62v2.12h8.46v2.11H27.5V37.24c0-3.49-1.16-5.82-4.55-9.2-1.48-1.49-5-5.61-5-10.9a14.82,14.82,0,0,1,29.63-.25v.25c0,5.29-3.49,9.42-5,10.9-3,3-4.24,5.29-4.55,8.15ZM30.68,14a2.13,2.13,0,0,0,2.11,2.12A4.25,4.25,0,0,1,37,20.31a4.32,4.32,0,0,1-3.18,4.13v2.22H31.73V24.44a4.22,4.22,0,0,1-3.17-4.13h2.12a2.12,2.12,0,1,0,2.11-2.12A4.24,4.24,0,0,1,28.56,14a4.31,4.31,0,0,1,3.17-4.13V7.61h2.12V9.83A4.24,4.24,0,0,1,37,14H34.91a2.12,2.12,0,0,0-4.23,0Zm9.52,2.12h2.12v2.11H40.2Zm-16.93,0h2.11v2.11H23.27Z"/><line id="Line_49" data-name="Line 49" class="cls-2" x1="8.21" y1="3.75" x2="19.14" y2="3.75"/><line id="Line_50" data-name="Line 50" class="cls-2" x1="1.66" y1="12.75" x2="12.58" y2="12.75"/><line id="Line_51" data-name="Line 51" class="cls-2" x1="11.12" y1="48.75" x2="22.05" y2="48.75"/><line id="Line_52" data-name="Line 52" class="cls-2" x1="7.48" y1="39.75" x2="18.41" y2="39.75"/><line id="Line_53" data-name="Line 53" class="cls-2" x1="5.3" y1="30.75" x2="16.22" y2="30.75"/><line id="Line_54" data-name="Line 54" class="cls-2" x1="0.2" y1="21.75" x2="11.12" y2="21.75"/></svg>