<svg id="Layer_1" data-name="Layer 1" xmlns="http://www.w3.org/2000/svg" viewBox="0 0 56 58"><defs><style>.cls-1,.cls-2{fill:#133649;}.cls-1{fill-rule:evenodd;}</style></defs><g id="Name_01" data-name="Name 01"><path id="Path_114" data-name="Path 114" class="cls-1" d="M33.88,21.18H32V10.86a1.75,1.75,0,0,0-1.78-1.72H28.38a1.89,1.89,0,0,0-1.83,1.71V21.18H24.71V10.86a3.66,3.66,0,0,1,3.67-3.43h1.83a3.66,3.66,0,0,1,3.67,3.43Z"/><rect id="Rectangle_234" data-name="Rectangle 234" class="cls-2" x="25.08" y="16.56" width="6.74" height="0.84"/><path id="Path_115" data-name="Path 115" class="cls-1" d="M40.45,27.75H17.6A1.73,1.73,0,0,1,15.85,26V3.15A1.89,1.89,0,0,1,17.6,1.39H40.45A1.73,1.73,0,0,1,42.2,3.1V26a1.62,1.62,0,0,1-1.46,1.76A1.4,1.4,0,0,1,40.45,27.75ZM17.61,3.15V26H40.45V3.15Z"/><path id="Path_116" data-name="Path 116" class="cls-1" d="M29,27.75A13.18,13.18,0,1,1,42.2,14.57,13.18,13.18,0,0,1,29,27.75Zm0-24.6A11.63,11.63,0,0,0,17.6,14.57,11.49,11.49,0,0,0,29,26,11.35,11.35,0,0,0,40.45,14.73v-.16A11.49,11.49,0,0,0,29,3.15Z"/><path id="Path_117" data-name="Path 117" class="cls-1" d="M25.55,57.54H2.71A1.74,1.74,0,0,1,1,55.83V32.94a1.89,1.89,0,0,1,1.76-1.75H25.55a1.73,1.73,0,0,1,1.76,1.7v22.9a1.61,1.61,0,0,1-1.47,1.75ZM2.71,32.94V55.79H25.55V32.94Z"/><path id="Path_118" data-name="Path 118" class="cls-1" d="M14.93,51H10.12V37.22h4.81a3.42,3.42,0,0,1,3.21,3.44v.86a3.71,3.71,0,0,1-1,2.57,4.15,4.15,0,0,1,1,2.58v.86A3.3,3.3,0,0,1,15,51Zm-3.21-1.72h3.21a1.53,1.53,0,0,0,1.61-1.45,1.22,1.22,0,0,0,0-.27v-.86A1.65,1.65,0,0,0,15,45h0V43.23a1.52,1.52,0,0,0,1.61-1.44,1.29,1.29,0,0,0,0-.28v-.85A1.64,1.64,0,0,0,15,38.94H11.72Z"/><rect id="Rectangle_237" data-name="Rectangle 237" class="cls-2" x="9.92" y="43.52" width="5.05" height="1.68"/><path id="Path_119" data-name="Path 119" class="cls-1" d="M14.13,57.54A13.18,13.18,0,1,1,27.31,44.36,13.18,13.18,0,0,1,14.13,57.54Zm0-24.6A11.63,11.63,0,0,0,2.71,44.36,11.48,11.48,0,0,0,14.13,55.79,11.35,11.35,0,0,0,25.55,44.52v-.16A11.49,11.49,0,0,0,14.13,32.94Z"/><path id="Path_120" data-name="Path 120" class="cls-1" d="M54.27,57.54H32.42a1.7,1.7,0,0,1-1.68-1.71V32.94a1.85,1.85,0,0,1,1.68-1.75H54.27A1.7,1.7,0,0,1,56,32.9V55.79a1.57,1.57,0,0,1-1.39,1.74A1.41,1.41,0,0,1,54.27,57.54ZM32.42,32.94V55.79H54.27V32.94Z"/><path id="Path_121" data-name="Path 121" class="cls-1" d="M44.26,51H42.43a3.51,3.51,0,0,1-3.66-3.35s0-.06,0-.09V40.66a3.66,3.66,0,0,1,3.67-3.44h1.83a3.65,3.65,0,0,1,3.67,3.44H46.1a1.75,1.75,0,0,0-1.78-1.72H42.43a1.91,1.91,0,0,0-1.83,1.72v6.87a1.75,1.75,0,0,0,1.79,1.72h1.87a1.64,1.64,0,0,0,1.83-1.42c0-.1,0-.2,0-.3h1.83A3.51,3.51,0,0,1,44.35,51Z"/><path id="Path_122" data-name="Path 122" class="cls-1" d="M43.34,57.54c-6.93,0-12.6-5.93-12.6-13.18s5.68-13.17,12.6-13.17,12.6,5.93,12.6,13.17S50.28,57.54,43.34,57.54Zm0-24.6c-5.88,0-10.92,5.27-10.92,11.42A11.25,11.25,0,0,0,43.34,55.79,11.1,11.1,0,0,0,54.27,44.52v-.15c0-6.16-4.83-11.43-10.93-11.43Z"/></g></svg>