<svg id="Layer_1" data-name="Layer 1" xmlns="http://www.w3.org/2000/svg" viewBox="0 0 35 51"><defs><style>.cls-1{fill:#133649;}.cls-2,.cls-3{fill:none;}.cls-3{stroke:#133649;}</style></defs><path id="noun_Business_ideas_1293477_a" data-name="noun Business ideas 1293477 a" class="cls-1" d="M34.73,17.14A16.94,16.94,0,1,0,.86,16.88v.26c0,6.13,3.91,10.69,5.61,12.38,2.54,2.54,3.6,4.34,3.91,6.67H9.33V38.3h1.05v2.12H9.33v2.12h1.05v2.11a2.17,2.17,0,0,0,2.12,2.12h1.06v2.12A2.17,2.17,0,0,0,15.68,51h4.23A2.17,2.17,0,0,0,22,48.88V46.77h1.06a2.17,2.17,0,0,0,2.11-2.12V42.54h1.06V40.42H25.2V38.3h1.06V36.19H25.2c.21-2.33,1.27-4,3.92-6.67C30.81,27.83,34.73,23.27,34.73,17.14ZM19.91,48.89H15.68V46.77h4.23Zm3.17-3.18V44.65h0Zm0-9.52H14.62V38.3h8.46v2.12H14.62v2.12h8.46v2.11H12.5V37.24c0-3.49-1.16-5.82-4.55-9.2-1.48-1.49-5-5.61-5-10.9a14.82,14.82,0,0,1,29.63-.25v.25c0,5.29-3.49,9.42-5,10.9-3,3-4.24,5.29-4.55,8.15Z"/><g id="Path_133" data-name="Path 133"><path class="cls-2" d="M17,25.62l-4.83-3.68a7.35,7.35,0,0,1-2.48-2.57c-1.78-3.1-1.08-6.85,1.57-8.38a27.86,27.86,0,0,0,12.39,0c2.65,1.53,3.35,5.28,1.56,8.38a7.27,7.27,0,0,1-2.48,2.57L17.9,25.62a.75.75,0,0,1-.9,0Z"/><path class="cls-1" d="M17.45,23.45l4.07-3.1.08-.06.09-.06a5.32,5.32,0,0,0,1.79-1.86A5,5,0,0,0,24.13,15a3.23,3.23,0,0,0-1.48-2.24,2.92,2.92,0,0,0-1.46-.38,4.15,4.15,0,0,0-2.51.93l-1.23,1-1.23-1a4.1,4.1,0,0,0-2.5-.93,2.92,2.92,0,0,0-1.46.38A3.2,3.2,0,0,0,10.78,15a5,5,0,0,0,.65,3.41,5.16,5.16,0,0,0,1.79,1.86l.09.06.08.06,4.06,3.1m0,2.32a.76.76,0,0,1-.45-.15l-4.83-3.68a7.38,7.38,0,0,1-2.48-2.57c-1.78-3.1-1.08-6.85,1.57-8.38a4.87,4.87,0,0,1,2.46-.65,6.15,6.15,0,0,1,3.73,1.35,6.2,6.2,0,0,1,3.74-1.35,4.92,4.92,0,0,1,2.46.65c2.65,1.53,3.35,5.28,1.56,8.38a7.38,7.38,0,0,1-2.48,2.57L17.9,25.62A.74.74,0,0,1,17.45,25.77Z"/></g><g id="Rectangle_276" data-name="Rectangle 276"><rect class="cls-2" x="19.7" y="15.25" width="2" height="2"/><rect class="cls-3" x="20.2" y="15.75" width="1" height="1"/></g></svg>