<svg id="Layer_1" data-name="Layer 1" xmlns="http://www.w3.org/2000/svg" viewBox="0 0 46 46"><defs><style>.cls-1{fill:#fff;}.cls-2{fill:#133649;}.cls-3{fill:none;stroke:#133649;stroke-width:2px;}.cls-4{isolation:isolate;}</style></defs><g id="Union_37" data-name="Union 37"><path class="cls-1" d="M7.87,43.61V35.87l-.72-.21a8.08,8.08,0,0,1-4.09-2.85A7.9,7.9,0,0,1,1.45,28V9.32a8,8,0,0,1,8-8h27a8,8,0,0,1,8,8V28a8,8,0,0,1-8,8H21.31l-.23.13Z"/><path class="cls-2" d="M8.87,41.9l11.71-6.65L21,35h15.4a7,7,0,0,0,7-7V9.32a7,7,0,0,0-7-7h-27a7,7,0,0,0-7,7V28a6.89,6.89,0,0,0,1.41,4.22A7.06,7.06,0,0,0,7.44,34.7l1.43.43V41.9m-2,3.43V36.62A9,9,0,0,1,.45,28V9.32a9,9,0,0,1,9-9h27a9,9,0,0,1,9,9V28a9,9,0,0,1-9,9H21.57Z"/></g><g id="Rectangle_282" data-name="Rectangle 282"><rect class="cls-1" x="5.45" y="6.33" width="35" height="7"/><rect class="cls-3" x="6.45" y="7.33" width="33" height="5"/></g><g id="Rectangle_283" data-name="Rectangle 283"><rect class="cls-1" x="5.45" y="16.33" width="35" height="7"/><rect class="cls-3" x="6.45" y="17.33" width="33" height="5"/></g><g id="_..." data-name=" ..." class="cls-4"><g class="cls-4"><path class="cls-2" d="M15.77,28.67a1.83,1.83,0,0,1,.14-.73,1.73,1.73,0,0,1,.39-.6,1.76,1.76,0,0,1,.59-.4,1.69,1.69,0,0,1,.74-.15,1.65,1.65,0,0,1,.73.15,1.84,1.84,0,0,1,1,1,2,2,0,0,1,0,1.48A2,2,0,0,1,19,30a1.91,1.91,0,0,1-.6.4,2,2,0,0,1-.73.14,2,2,0,0,1-.74-.14,1.76,1.76,0,0,1-.59-.4,1.79,1.79,0,0,1-.39-.59A1.82,1.82,0,0,1,15.77,28.67Z"/><path class="cls-2" d="M22.13,28.67a1.83,1.83,0,0,1,.14-.73,1.73,1.73,0,0,1,.39-.6,1.76,1.76,0,0,1,.59-.4,1.69,1.69,0,0,1,.74-.15,1.65,1.65,0,0,1,.73.15,1.84,1.84,0,0,1,1,1,2,2,0,0,1,0,1.48,2,2,0,0,1-.4.59,1.91,1.91,0,0,1-.6.4,2,2,0,0,1-.73.14,2,2,0,0,1-.74-.14,1.76,1.76,0,0,1-.59-.4,1.79,1.79,0,0,1-.39-.59A1.82,1.82,0,0,1,22.13,28.67Z"/><path class="cls-2" d="M28.48,28.67a1.83,1.83,0,0,1,.15-.73,1.73,1.73,0,0,1,.39-.6,1.76,1.76,0,0,1,.59-.4,1.88,1.88,0,0,1,1.47,0,1.84,1.84,0,0,1,1,1,2,2,0,0,1,0,1.48,2,2,0,0,1-.4.59,1.91,1.91,0,0,1-.6.4,2,2,0,0,1-1.47,0A1.76,1.76,0,0,1,29,30a1.79,1.79,0,0,1-.39-.59A1.83,1.83,0,0,1,28.48,28.67Z"/></g></g></svg>