<svg id="Layer_1" data-name="Layer 1" xmlns="http://www.w3.org/2000/svg" viewBox="0 0 56 58"><defs><style>.cls-1,.cls-3{fill:#133649;}.cls-1{fill-rule:evenodd;}.cls-2{isolation:isolate;}</style></defs><g id="Name_01" data-name="Name 01"><path id="Path_105" data-name="Path 105" class="cls-1" d="M40.45,27.75H17.6A1.73,1.73,0,0,1,15.85,26V3.15A1.89,1.89,0,0,1,17.6,1.39H40.45A1.73,1.73,0,0,1,42.2,3.1V26a1.62,1.62,0,0,1-1.46,1.76A1.4,1.4,0,0,1,40.45,27.75ZM17.61,3.15V26H40.45V3.15Z"/><path id="Path_106" data-name="Path 106" class="cls-1" d="M29,27.75A13.18,13.18,0,1,1,42.2,14.57,13.18,13.18,0,0,1,29,27.75Zm0-24.6A11.63,11.63,0,0,0,17.6,14.57,11.48,11.48,0,0,0,29,26,11.34,11.34,0,0,0,40.45,14.73v-.16A11.49,11.49,0,0,0,29,3.15Z"/><path id="Path_107" data-name="Path 107" class="cls-1" d="M25.55,57.54H2.71A1.74,1.74,0,0,1,1,55.83V32.94a1.89,1.89,0,0,1,1.76-1.75H25.55a1.73,1.73,0,0,1,1.76,1.7v22.9a1.61,1.61,0,0,1-1.47,1.75ZM2.71,32.94V55.79H25.55V32.94Z"/><path id="Path_109" data-name="Path 109" class="cls-1" d="M14.13,57.54A13.18,13.18,0,1,1,27.31,44.36,13.18,13.18,0,0,1,14.13,57.54Zm0-24.6A11.63,11.63,0,0,0,2.71,44.36,11.48,11.48,0,0,0,14.13,55.79,11.35,11.35,0,0,0,25.55,44.52v-.15A11.49,11.49,0,0,0,14.13,32.94Z"/><path id="Path_110" data-name="Path 110" class="cls-1" d="M54.27,57.54H32.42a1.7,1.7,0,0,1-1.68-1.71V32.94a1.85,1.85,0,0,1,1.68-1.75H54.27A1.7,1.7,0,0,1,56,32.9V55.79a1.57,1.57,0,0,1-1.39,1.74A1.41,1.41,0,0,1,54.27,57.54ZM32.42,32.94V55.79H54.27V32.94Z"/><path id="Path_112" data-name="Path 112" class="cls-1" d="M43.34,57.54c-6.93,0-12.6-5.93-12.6-13.18s5.68-13.17,12.6-13.17,12.6,5.93,12.6,13.17S50.28,57.54,43.34,57.54Zm0-24.6c-5.88,0-10.92,5.27-10.92,11.42A11.25,11.25,0,0,0,43.34,55.79,11.1,11.1,0,0,0,54.27,44.52v-.15c0-6.16-4.83-11.43-10.93-11.43Z"/><g id="_1" data-name=" 1" class="cls-2"><g class="cls-2"><path class="cls-3" d="M25.09,19.24H28V10.81c0-.33,0-.67,0-1L26,11.52a.76.76,0,0,1-.26.15.84.84,0,0,1-.27,0,.86.86,0,0,1-.36-.08.88.88,0,0,1-.25-.2l-.78-1.07,4.41-3.75h2V19.24h2.6v1.85h-8Z"/></g></g><g id="_2" data-name=" 2" class="cls-2"><g class="cls-2"><path class="cls-3" d="M14.25,36.8a5.32,5.32,0,0,1,1.83.3,4,4,0,0,1,1.42.83,3.89,3.89,0,0,1,.92,1.3,4.21,4.21,0,0,1,.33,1.69,4.69,4.69,0,0,1-.23,1.48,6.24,6.24,0,0,1-.63,1.3A10.19,10.19,0,0,1,17,44.9c-.35.39-.72.78-1.11,1.18l-3.26,3.33a8.4,8.4,0,0,1,.94-.21,5.53,5.53,0,0,1,.88-.08h3.71a.9.9,0,0,1,.64.23.79.79,0,0,1,.23.59v1.48H9.07V50.6a1.43,1.43,0,0,1,.11-.52,1.45,1.45,0,0,1,.33-.5l4.39-4.4c.37-.37.7-.73,1-1.07a7.1,7.1,0,0,0,.73-1,5.3,5.3,0,0,0,.45-1A3.93,3.93,0,0,0,16.22,41a2.52,2.52,0,0,0-.15-.91,1.72,1.72,0,0,0-.43-.67A1.86,1.86,0,0,0,15,39a2.65,2.65,0,0,0-.87-.14,2.23,2.23,0,0,0-2.27,1.66,1,1,0,0,1-.33.55.91.91,0,0,1-.56.16l-.33,0L9.32,41a5.26,5.26,0,0,1,.58-1.82A4.36,4.36,0,0,1,11,37.86a4.3,4.3,0,0,1,1.48-.79A5.74,5.74,0,0,1,14.25,36.8Z"/></g></g><g id="_3" data-name=" 3" class="cls-2"><g class="cls-2"><path class="cls-3" d="M43.82,36.8a5.39,5.39,0,0,1,1.8.29,4.06,4.06,0,0,1,1.38.79,3.36,3.36,0,0,1,.87,1.18,3.62,3.62,0,0,1,.31,1.47A4.45,4.45,0,0,1,48,41.75a2.71,2.71,0,0,1-1.17,1.57,4.26,4.26,0,0,1-1,.45A3.8,3.8,0,0,1,47.83,45a3.42,3.42,0,0,1,.64,2.11,4.43,4.43,0,0,1-.4,1.91A4.28,4.28,0,0,1,47,50.44a4.81,4.81,0,0,1-1.58.85,6.23,6.23,0,0,1-1.89.29,6.34,6.34,0,0,1-1.9-.25,4.13,4.13,0,0,1-1.41-.74,4.57,4.57,0,0,1-1-1.2,8,8,0,0,1-.72-1.64l1.09-.45a1.39,1.39,0,0,1,.57-.12,1,1,0,0,1,.46.11.76.76,0,0,1,.32.32q.18.35.39.69a2.76,2.76,0,0,0,.52.61,2.34,2.34,0,0,0,1.67.59,2.88,2.88,0,0,0,1.1-.2,2.47,2.47,0,0,0,.78-.54,2.12,2.12,0,0,0,.47-.73,2.39,2.39,0,0,0,.16-.82,3.85,3.85,0,0,0-.11-.94,1.45,1.45,0,0,0-.46-.73,2.5,2.5,0,0,0-1-.47,7.41,7.41,0,0,0-1.75-.17V43.13A5.87,5.87,0,0,0,44.18,43a2.62,2.62,0,0,0,1-.44,1.54,1.54,0,0,0,.5-.69,2.75,2.75,0,0,0,.14-.88,2,2,0,0,0-.56-1.55,2.17,2.17,0,0,0-1.53-.53,2.24,2.24,0,0,0-1.46.47,2.36,2.36,0,0,0-.81,1.19,1.09,1.09,0,0,1-.33.54.88.88,0,0,1-.55.17l-.34,0L38.89,41a5.26,5.26,0,0,1,.58-1.82,4.19,4.19,0,0,1,1.07-1.31A4.4,4.4,0,0,1,42,37.07,5.85,5.85,0,0,1,43.82,36.8Z"/></g></g></g></svg>